<?xml version="1.0" standalone="no"?>
<!DOCTYPE svg PUBLIC "-//W3C//DTD SVG 1.1//EN" "http://www.w3.org/Graphics/SVG/1.1/DTD/svg11.dtd" >
<svg xmlns="http://www.w3.org/2000/svg">
<metadata>Generated by IcoMoon</metadata>
<defs>
<font id="tomkovich-icon" horiz-adv-x="1024">
<font-face units-per-em="1024" ascent="960" descent="-64" />
<missing-glyph horiz-adv-x="1024" />
<glyph unicode="&#x20;" horiz-adv-x="512" d="" />
<glyph unicode="&#xe900;" glyph-name="apple-logo" d="M843.383 289.868c-28.311 40.612-42.457 86.366-42.457 137.225 0 46.358 13.35 88.83 39.995 127.388 14.359 20.922 37.75 45.121 70.16 72.613-21.33 26.248-42.662 46.761-64.009 61.534-38.562 26.662-82.258 39.993-131.074 39.993-29.121 0-64.616-6.971-106.453-20.929-40.207-13.948-69.544-20.929-87.996-20.929-13.956 0-42.259 6.149-84.925 18.463-43.075 12.309-79.385 18.459-108.923 18.459-70.563 0-128.819-29.542-174.766-88.612-46.358-59.898-69.542-136.613-69.542-230.153 0-99.282 30.16-202.451 90.464-309.529 61.123-106.254 122.868-159.389 185.226-159.389 20.922 0 48.001 6.977 81.226 20.925 33.236 13.527 62.362 20.306 87.39 20.306 26.658 0 57.637-6.563 92.917-19.685 37.329-13.116 66.054-19.681 86.153-19.681 52.51 0 105.235 40.207 158.15 120.613 34.454 51.279 59.687 102.558 75.687 153.843-36.512 11.085-68.916 36.93-97.225 77.544zM634.144 765.543c25.852 25.845 44.927 54.156 57.239 84.92 11.891 30.768 17.827 58.67 17.827 83.698 0 1.636-0.088 3.69-0.31 6.154-0.185 2.461-0.295 4.507-0.295 6.149-0.414 1.233-0.923 3.49-1.535 6.768s-1.123 5.535-1.543 6.768c-72.203-16.829-123.482-47.186-153.843-91.085-30.76-44.308-46.768-97.021-48.001-158.147 27.488 2.464 48.811 5.945 63.998 10.46 22.17 7.387 44.298 22.162 66.464 44.315z" />
<glyph unicode="&#xe901;" glyph-name="battery" d="M725.948 891.733h-111.548v68.267h-204.8v-68.267h-111.548c-32.597 0-59.119-26.522-59.119-59.119v-837.495c0-32.597 26.522-59.119 59.119-59.119h427.895c32.597 0 59.119 26.522 59.119 59.119v837.495c0 32.597-26.522 59.119-59.119 59.119zM443.733 925.867h136.533v-34.133h-136.533v34.133zM750.933-4.881c0-13.79-11.196-24.986-24.986-24.986h-427.895c-13.79 0-24.986 11.196-24.986 24.986v837.495c0 13.79 11.196 24.986 24.986 24.986h427.895c13.79 0 24.986-11.196 24.986-24.986v-837.495z" />
<glyph unicode="&#xe902;" glyph-name="box-closed" d="M1013.017 762.243l0.7 1.854-501.488 195.904-500.672-197.936-1.635 0.649v-1.269l-0.071-0.039 0.071-0.213v-628.391l502.078-196.8 502.149 196.809v629.894l-1.132-0.462zM511.761 921.488l170.093-60.917-463.679-180.020-157.068 61.957 450.655 178.979zM494.103-19.605l-188.045 75.919-94.372 35.454-165.881 65.44v552.778l164.216-64.776v-138.221l14.635 4.086 9.89-13.59 13.77 3.214 13.336-14.087 11.638 4.010 18.788-18.632v140.858l202.027-79.686v-552.767h-0.002zM512.041 564.621l-183.345 72.336 452.188 183.264 186.492-75.974-455.335-179.625zM978.29 157.208l-448.328-176.814v552.765l448.285 176.838v-552.776l0.043-0.013z" />
<glyph unicode="&#xe903;" glyph-name="cart" d="M1020.166 727.903c-3.3 4.088-8.268 6.463-13.52 6.463h-833.079c-4.866 0-9.508-2.039-12.798-5.624-3.28-3.585-4.922-8.385-4.495-13.236l34.713-399.185c0.783-8.975 8.288-15.854 17.288-15.854h711.59c8.156 0 15.229 5.695 16.968 13.668l86.781 399.185c1.108 5.141-0.158 10.5-3.447 14.583zM905.872 335.185h-681.687l-31.693 364.472h792.615l-79.235-364.472zM190.804 718.934l-17.354 156.202c-0.971 8.791-8.39 15.437-17.242 15.437h-138.853c-9.58 0-17.354-7.775-17.354-17.359s7.775-17.354 17.354-17.354h123.314l15.646-140.765c0.981-8.878 8.497-15.437 17.217-15.437 0.641 0 1.292 0.036 1.937 0.112 9.529 1.063 16.393 9.636 15.335 19.164zM242.876 163.536l-17.354 156.202c-1.058 9.539-9.676 16.403-19.159 15.335-9.529-1.058-16.393-9.63-15.335-19.159l17.354-156.202c0.981-8.878 8.497-15.437 17.217-15.437 0.641 0 1.292 0.036 1.942 0.107 9.529 1.053 16.393 9.625 15.335 19.154zM242.983 178.983c-47.852 0-86.781-38.929-86.781-86.781s38.929-86.781 86.781-86.781c47.852 0 86.781 38.929 86.781 86.781s-38.934 86.781-86.781 86.781zM242.983 40.14c-28.713 0-52.067 23.354-52.067 52.067s23.354 52.067 52.067 52.067c28.713 0 52.067-23.354 52.067-52.067 0-28.718-23.354-52.067-52.067-52.067zM833.079 178.983c-47.852 0-86.781-38.929-86.781-86.781s38.929-86.781 86.781-86.781 86.781 38.929 86.781 86.781-38.929 86.781-86.781 86.781zM833.079 40.14c-28.713 0-52.067 23.354-52.067 52.067s23.354 52.067 52.067 52.067c28.713 0 52.067-23.354 52.067-52.067 0-28.718-23.354-52.067-52.067-52.067zM763.658 109.562h-451.253c-9.58 0-17.354-7.775-17.354-17.354s7.775-17.354 17.354-17.354h451.253c9.59 0 17.354 7.775 17.354 17.354s-7.775 17.354-17.354 17.354z" />
<glyph unicode="&#xe904;" glyph-name="credit-card" d="M996.818 608.588l-324.252 324.248c-17.504 17.502-40.846 27.142-65.73 27.142-24.882 0-48.226-9.636-65.73-27.138l-513.964-513.966c-17.502-17.504-27.142-40.844-27.142-65.728s9.64-48.228 27.142-65.728l39.984-39.984c0.004-0.002 0.006-0.006 0.010-0.010s0.008-0.008 0.012-0.012l268.72-268.72h-37.208c-11.78 0-21.332-9.55-21.332-21.332 0-11.78 9.552-21.332 21.332-21.332h118.378c0.028 0 0.054-0.002 0.082-0.002s0.054 0.002 0.082 0.002l308.106-0.004c11.78 0 21.332 9.552 21.332 21.332 0 11.782-9.552 21.332-21.332 21.332l-226.928 0.004 498.44 498.44c36.24 36.244 36.24 95.216-0.002 131.456zM966.65 507.3l-513.968-513.968c-9.426-9.424-22.026-14.62-35.484-14.64h-0.162c-13.454 0.022-26.050 5.216-35.472 14.64l-269.174 269.176 493.59 493.594c8.33 8.33 8.33 21.838 0 30.168-8.332 8.33-21.836 8.33-30.17-0.002l-493.59-493.594-24.912 24.912c-9.442 9.442-14.642 22.070-14.642 35.558s5.2 26.118 14.644 35.562l513.964 513.964c9.444 9.442 22.074 14.642 35.562 14.642s26.118-5.2 35.562-14.644l115.406-115.404-493.596-493.6c-8.33-8.328-8.33-21.836 0-30.17 4.166-4.164 9.626-6.246 15.084-6.246s10.918 2.084 15.084 6.248l493.596 493.598 178.678-178.672c19.606-19.608 19.604-51.514 0-71.122zM525.602 343.872c-8.33 8.33-21.834 8.328-30.17 0l-167.868-167.866c-8.33-8.33-8.33-21.836 0-30.17 4.166-4.166 9.626-6.248 15.084-6.248s10.918 2.084 15.084 6.248l167.868 167.866c8.332 8.334 8.332 21.84 0.002 30.17zM456.75 184.518l-68.85-68.85c-8.33-8.33-8.33-21.838 0-30.17 4.166-4.164 9.626-6.248 15.084-6.248 5.462 0 10.918 2.084 15.084 6.248l68.85 68.85c8.33 8.33 8.33 21.838 0 30.17s-21.832 8.332-30.168 0zM520.108 247.87l-9.050-9.048c-8.332-8.33-8.332-21.836-0.002-30.17 4.164-4.166 9.626-6.25 15.084-6.25s10.918 2.084 15.082 6.25l9.050 9.048c8.332 8.33 8.332 21.836 0.002 30.168-8.326 8.33-21.836 8.332-30.166 0.002zM814.146 632.414c-4 4-9.426 6.248-15.084 6.248s-11.082-2.248-15.084-6.248l-90.51-90.508c-4-4.002-6.248-9.426-6.248-15.084s2.248-11.084 6.248-15.084l60.34-60.334c4.166-4.166 9.626-6.248 15.084-6.248 5.462 0 10.918 2.084 15.084 6.248l90.506 90.504c8.33 8.33 8.33 21.838 0 30.168l-60.336 60.338zM768.89 496.654l-30.17 30.168 60.34 60.338 30.168-30.17-60.338-60.336zM640.678 799.628c5.462 0 10.922 2.084 15.086 6.252l9.050 9.054c8.328 8.332 8.326 21.84-0.006 30.168-8.33 8.328-21.84 8.326-30.168-0.006l-9.050-9.054c-8.328-8.332-8.326-21.84 0.006-30.168 4.166-4.166 9.622-6.246 15.082-6.246zM214.43 243.886l-9.050-9.050c-8.33-8.328-8.33-21.836 0-30.17 4.166-4.164 9.626-6.246 15.084-6.246s10.918 2.082 15.084 6.246l9.050 9.050c8.33 8.332 8.33 21.84 0 30.17-8.332 8.332-21.836 8.332-30.168 0z" />
<glyph unicode="&#xe905;" glyph-name="customer-service" d="M1024 436.148v-133.265c0-52.198-42.468-94.666-94.666-94.666h-27.437c-12.205-114.667-109.498-204.295-227.347-204.295h-68.097c-9.803-25.22-34.273-43.17-62.913-43.17h-63.083c-37.24 0-67.532 30.297-67.532 67.532 0 37.24 30.297 67.532 67.532 67.532h63.078c28.64 0 53.114-17.95 62.913-43.17h68.097c99.217 0 179.938 80.716 179.938 179.933v311.459c0 188.85-153.637 342.486-342.491 342.486-188.85 0-342.486-153.637-342.486-342.486v-311.454c0-13.453-10.909-24.362-24.362-24.362h-50.478c-52.198 0-94.666 42.468-94.666 94.666v133.265c0 52.198 42.468 94.666 94.666 94.666h26.121v13.224c0 215.711 175.499 391.211 391.211 391.211 215.716 0 391.215-175.494 391.215-391.211v-13.224h26.121c52.198-0.005 94.666-42.473 94.666-94.671z" />
<glyph unicode="&#xe906;" glyph-name="earphones" d="M274.844 647.469h-25.738v-136.778c0-32.507-23.995-58.094-56.502-58.094h-9.681v-489.020c0-15.233-12.343-27.576-27.576-27.576s-27.576 12.343-27.576 27.576v489.020h-1.838c-32.507 0-60.668 25.587-60.668 58.094v295.441c0 85.858 71.566 153.868 157.424 153.868h52.156v-312.531zM332.019 960h-2.022v-312.531h2.022c61.602 0 111.96 50.479 111.96 112.081v90.572c0 61.602-50.358 109.879-111.96 109.879zM789.601 960h-52.16c-85.858 0-157.42-68.011-157.42-153.868v-295.441c0-32.507 28.161-58.094 60.668-58.094h1.838v-489.020c0-15.233 12.343-27.576 27.576-27.576s27.576 12.343 27.576 27.576v489.020h9.681c32.507 0 56.502 25.587 56.502 58.094v136.778h25.738v312.531zM846.776 960h-2.022v-312.531h2.022c61.602 0 111.96 50.479 111.96 112.081v90.572c0 61.602-50.358 109.879-111.96 109.879z" />
<glyph unicode="&#xe907;" glyph-name="facebook-logo" d="M1024 789.322c0 89.68-80.964 170.678-170.667 170.678h-682.667c-89.702 0-170.667-80.998-170.667-170.678v-682.644c0-89.68 80.964-170.678 170.678-170.678h341.322v386.844h-125.156v170.667h125.156v66.492c0 114.677 86.107 217.953 192 217.953h137.956v-170.667h-137.956c-15.098 0-32.711-18.33-32.711-45.784v-67.994h170.667v-170.667h-170.667v-386.844h182.044c89.702 0 170.667 80.998 170.667 170.678v682.644z" />
<glyph unicode="&#xe908;" glyph-name="headphones1" d="M978.034 659.782v0.034c-117.016 257.383-420.529 371.172-677.913 254.154-112.652-51.215-202.939-141.504-254.156-254.156-30.371-66.492-46.028-138.757-45.904-211.857v-160.305c-0.081-31.695 12.521-62.107 35-84.453l68.975-68.992 9.368-25.836c28.91-76.633 102.885-126.807 184.776-125.322 3.584 0 7.218 0.444 10.836 0.614l0.853-2.355c12.901-35.652 52.262-54.097 87.915-41.196 0 0 0.002 0 0.002 0l2.799 1.007c35.642 12.85 54.116 52.16 41.266 87.8-0.002 0.004-0.004 0.011-0.004 0.015l-135.169 373.715c-12.999 35.582-52.294 53.988-87.951 41.194l-2.764-1.007c-30.296-10.83-48.918-41.345-44.692-73.241-29.349-21.367-52.465-50.181-66.962-83.463-1.169 2.291-1.805 4.816-1.86 7.389v154.435c0 226.189 183.361 409.551 409.551 409.551s409.551-183.361 409.551-409.551v-154.435c-0.102-1.212-0.343-2.408-0.717-3.567-14.618 31.693-37.098 59.12-65.306 79.675 4.213 31.875-14.388 62.367-44.658 73.207l-2.833 1.024c-35.629 12.777-74.886-5.631-87.849-41.194l-135.186-373.715c-12.862-35.633 5.595-74.948 41.228-87.814l2.799-1.024c35.656-12.86 74.993 5.578 87.917 41.211l0.853 2.355c3.601-0.171 7.252-0.614 10.836-0.614 81.887-1.487 155.862 48.679 184.776 125.305l10.938 30.238 64.59 64.607c22.474 22.342 35.076 52.747 35 84.436v160.305c0.119 73.092-15.537 145.344-45.904 211.827zM208.028 392.975c3.861 8.31 10.902 14.718 19.539 17.781l2.764 1.007c17.939 6.493 37.747-2.779 44.249-20.716l135.169-373.715c6.455-17.879-2.807-37.606-20.687-44.061-0.015-0.006-0.030-0.011-0.047-0.017l-2.799-1.007c-17.933-6.461-37.715 2.803-44.231 20.716l-5.119 14.283-130.032 359.502c-3.114 8.552-2.686 17.992 1.195 26.226zM181.988 334.887v0.068l114.998-317.775c-61.819-0.715-118.573 34.074-145.988 89.487 0.427 0 0.87 0 1.297 0s0.904 0 1.348 0c1.706 0 3.242 0.324 4.863 0.478s2.799 0.154 4.198 0.392c2.235 0.427 4.441 0.996 6.604 1.706 1.229 0.375 2.457 0.614 3.652 1.075 2.289 0.945 4.507 2.052 6.638 3.311 1.007 0.563 2.065 0.973 3.037 1.604 24.654 15.904 31.749 48.781 15.847 73.435-2.067 3.204-4.473 6.177-7.178 8.867l-61.142 61.194c9.836 29.72 27.788 56.1 51.825 76.157zM68.32 447.957v-154.435c-0.038-13.586 5.363-26.619 15-36.194l83.855-83.873c7.474-7.474 7.474-19.59 0-27.064s-19.59-7.474-27.064 0l-80.92 80.954c-16.056 15.955-25.057 37.672-25 60.306v160.305c-0.111 64.534 12.965 128.411 38.429 187.711h37.303c-27.387-58.788-41.586-122.854-41.604-187.711zM512 891.637c-158.513-0.034-304.979-84.589-384.278-221.84h-38.924c122.505 233.73 411.289 323.895 645.016 201.39 86.040-45.097 156.293-115.348 201.388-201.388h-38.924c-79.299 137.251-225.765 221.804-384.278 221.838zM708.533 58.409l-18.515-51.194-5.119-14.283c-6.493-17.946-26.305-27.231-44.251-20.74-0.004 0.002-0.011 0.004-0.015 0.006l-2.799 1.024c-17.901 6.444-27.19 26.177-20.751 44.078l135.186 373.715c6.474 17.922 26.252 27.205 44.174 20.731 0.013-0.004 0.028-0.011 0.041-0.015l2.833-1.024c17.888-6.429 27.18-26.143 20.751-44.031-0.006-0.015-0.011-0.030-0.017-0.047l-111.517-308.221zM729.915 17.181l114.913 317.726c23.468-19.586 41.164-45.187 51.194-74.060l-63.241-63.258c-20.763-20.815-20.763-54.509 0-75.323 2.739-2.711 5.766-5.115 9.027-7.167 1.075-0.683 2.201-1.143 3.311-1.706 2.197-1.231 4.477-2.302 6.826-3.208 1.331-0.495 2.679-0.819 4.044-1.195 2.195-0.648 4.428-1.156 6.689-1.519 1.45-0.205 2.884-0.307 4.334-0.41 1.177 0 2.321-0.341 3.413-0.341s2.065 0.239 3.106 0.307c1.041 0.068 1.706-0.102 2.474 0-27.32-55.592-84.152-90.543-146.090-89.845zM989.809 287.652c0.055-22.638-8.946-44.359-25-60.323l-80.903-80.92c-7.474-7.474-19.59-7.474-27.064 0s-7.474 19.59 0 27.064l83.855 83.873c9.62 9.578 15.015 22.602 14.983 36.177v154.435c-0.017 64.856-14.215 128.923-41.604 187.711h37.303c25.465-59.3 38.54-123.177 38.429-187.711v-160.305z" />
<glyph unicode="&#xe909;" glyph-name="headphones2" d="M343.84 527.936c0 0.016 0 0.016 0 0.032v176.032h80c70.576 0 128 57.424 128 128s-57.424 128-128 128h-96c-61.68 0-111.872-50.144-111.984-111.792 0-0.064-0.048-0.128-0.048-0.208v-320.032c0-0.128 0.064-0.224 0.064-0.336 0.192-29.568 20.56-54.24 47.968-61.36v-514.272c0-8.848 7.152-16 16-16 0.064 0 0.112 0.032 0.16 0.032 0.064 0 0.112-0.032 0.176-0.032 145.28 0 263.984 114.576 271.312 258.080 27.872 6.896 48.672 31.92 48.704 61.888 0 0.016 0 0.016 0 0.032v176h80c70.576 0 128 57.424 128 128s-57.424 128-128 128h-96c-61.68 0-111.872-50.144-111.984-111.792 0-0.064-0.048-0.128-0.048-0.208v-320c0-0.128 0.064-0.224 0.064-0.336 0.192-29.312 20.24-53.776 47.28-61.136-6.784-120.864-103.12-217.888-223.664-225.728v497.472c27.52 7.152 47.968 31.952 48 61.664zM600.192 656h64v-192h-64zM776.192 560c0-47.472-34.672-86.912-80-94.56v189.12c45.328-7.648 80-47.088 80-94.56zM504.192 256.032c0 0.064-0.032 0.096-0.032 0.16v319.648c0 0.064 0.032 0.096 0.032 0.16 0 38.624 27.536 70.96 64 78.368v-398.336c0-17.648-14.352-32-32-32s-32 14.352-32 32zM343.84 928h64v-192h-64zM519.84 832c0-47.472-34.672-86.912-80-94.56v189.12c45.328-7.648 80-47.088 80-94.56zM247.84 528c0 0.064-0.032 0.096-0.032 0.16v319.68c0 0.064 0.032 0.096 0.032 0.16 0 38.624 27.536 70.96 64 78.368v-398.368c0-17.648-14.352-32-32-32s-32 14.352-32 32z" />
<glyph unicode="&#xe90a;" d="M512 960c-282.768 0-512-229.232-512-512s229.232-512 512-512 512 229.232 512 512-229.232 512-512 512z" />
<glyph unicode="&#xe90b;" d="M770.32 308.016h-48v209.44c0 115.968-94.336 210.336-210.32 210.336s-210.336-94.352-210.336-210.336v-209.44h-48v209.44c0 142.432 115.888 258.336 258.336 258.336s258.32-115.888 258.32-258.336v-209.44z" />
<glyph unicode="&#xe90c;" d="M722.336 455.968v-267.264c63.968 10.96 112.704 66.528 112.704 133.632-0.016 67.088-48.736 122.672-112.704 133.632z" />
<glyph unicode="&#xe90d;" d="M301.68 455.968v-267.264c-63.968 10.96-112.704 66.528-112.704 133.632 0 67.088 48.736 122.672 112.704 133.632z" />
<glyph unicode="&#xe90e;" d="M331.568 455.968h-29.888v-267.264h29.888c8.8 0 16 7.2 16 16v235.264c0 8.8-7.2 16-16 16z" />
<glyph unicode="&#xe90f;" d="M301.68 382.4h45.888v-120.272h-45.888v120.272z" />
<glyph unicode="&#xe910;" d="M692.432 455.968c-8.8 0-16-7.2-16-16v-235.264c0-8.8 7.2-16 16-16h29.888v267.264h-29.888z" />
<glyph unicode="&#xe911;" d="M676.48 382.4h45.888v-120.272h-45.888v120.272z" />
<glyph unicode="&#xe912;" glyph-name="headphones-side-view" d="M512.002-9.322c132.514 0 240.339 107.825 240.339 240.358 0 110.235-74.703 203.149-176.065 231.359-20.494 5.7-41.981 8.996-64.273 8.996v0c-22.298 0-43.786-3.28-64.286-8.996-101.372-28.21-176.072-121.124-176.072-231.359 0-132.514 107.822-240.358 240.358-240.358zM512.002 342.571c61.508 0 111.515-50.023 111.515-111.535s-50.010-111.535-111.515-111.535c-61.502 0-111.535 50.023-111.535 111.535s50.033 111.535 111.535 111.535zM512.002 128.136c56.736 0 102.88 46.164 102.88 102.9s-46.144 102.9-102.88 102.9c-56.74 0-102.9-46.164-102.9-102.9s46.16-102.9 102.9-102.9zM512.002-64c162.939 0 295.033 132.094 295.033 295.036 0 93.858-43.985 177.313-112.294 231.359h0.339c0 0-61.459 54.333-61.459 135.644h-5.684c-7.335-3.99-15.634-6.475-24.556-6.475h-178.459c-8.931 0-17.221 2.488-24.556 6.475h-9.983c0-81.312-61.453-135.644-61.453-135.644h0.329c-68.325-54.046-112.294-137.497-112.294-231.359-0.020-162.942 132.084-295.036 295.036-295.036zM399.412 462.395c34.076 16.647 72.179 26.269 112.59 26.269v0c40.392 0 78.51-9.622 112.577-26.269 85.712-41.871 145.028-129.71 145.028-231.359 0-142.061-115.547-257.628-257.608-257.628-142.070 0-257.628 115.564-257.628 257.628 0.003 101.649 59.329 189.488 145.041 231.359zM637.92 951.365c0 4.765-3.863 8.635-8.635 8.635h-230.268c-4.765 0-8.635-3.869-8.635-8.635v-38.692h247.54v38.692zM390.38 895.42h247.54v-75.559h-247.54v75.559zM424.922 608.833h178.459c19.074 0 34.539 15.458 34.539 34.542v159.213h-247.54v-159.193c0-19.103 15.458-34.562 34.542-34.562z" />
<glyph unicode="&#xe913;" glyph-name="headphones-thin-outlined-tool" d="M65.805-64c-30.507 0-55.344 27.378-55.344 61.015v414.048c0 33.588 24.836 61.015 55.344 61.015s55.295-27.427 55.295-61.014v-414.049c0.049-33.637-24.786-61.015-55.295-61.015zM65.805 432.917c-8.8 0-16.281-10.021-16.281-21.852v-414.049c0-11.831 7.432-21.854 16.281-21.854 8.8 0 16.232 10.023 16.232 21.854v414.049c0 11.829-7.43 21.852-16.232 21.852zM129.215 72.941c-15.009 0-27.232 13.444-27.232 30.017v202.062c0 16.573 12.223 30.018 27.232 30.018s27.281-13.445 27.281-30.018v-202.062c0.002-16.524-12.27-30.017-27.281-30.017zM129.215 315.483c-4.155 0-7.627-4.791-7.627-10.462v-202.062c0-5.67 3.472-10.462 7.627-10.462 4.157 0 7.676 4.791 7.676 10.462v202.062c0.002 5.722-3.47 10.462-7.676 10.462zM899.037 77.927c-15.009 0-27.281 13.396-27.281 29.922v202.157c0 16.525 12.223 29.922 27.281 29.922s27.281-13.396 27.281-29.922v-202.159c0-16.525-12.272-29.92-27.281-29.92zM899.037 320.374c-4.155 0-7.676-4.744-7.676-10.366v-202.159c0-5.624 3.519-10.364 7.676-10.364s7.676 4.742 7.676 10.364v202.157c0.049 5.624-3.472 10.367-7.676 10.367zM958.243-59.063c-30.558 0-55.344 27.427-55.344 61.015v414.048c0 33.636 24.836 61.015 55.344 61.015s55.295-27.427 55.295-61.015v-414.048c0.049-33.587-24.788-61.015-55.295-61.015zM958.243 437.854c-8.8 0-16.281-10.021-16.281-21.854v-414.048c0-11.833 7.432-21.854 16.281-21.854 8.8 0 16.23 10.021 16.23 21.854v414.048c0.002 11.833-7.43 21.854-16.23 21.854zM991.39 414.682c-10.021 0-18.577 7.676-19.458 17.845-24.054 273.881-225.578 488.312-458.785 488.312-232.569 0-428.862-202.405-456.631-470.762l-1.418-15.84c-0.88-10.805-10.951-18.92-21.023-17.942-10.805 0.831-18.823 10.267-17.992 21.021l1.516 16.868c29.872 288.352 242.886 505.816 495.599 505.816 253.299 0 471.936-230.224 497.75-524.052 0.979-10.805-7.042-20.241-17.748-21.218-0.636 0-1.223-0.048-1.81-0.048zM935.999 419.081c-10.023 0-18.579 7.676-19.458 17.845-21.22 240.979-198.396 429.693-403.343 429.693-204.408 0-376.942-178.105-401.338-414.245-0.488-4.644-0.979-9.192-1.272-13.737-0.733-10.756-10.511-18.187-20.826-18.187-10.756 0.783-18.92 10.072-18.187 20.875 0.343 5.134 0.831 10.169 1.418 15.253 26.499 256.038 215.752 449.201 440.255 449.201 225.088 0 419.329-204.459 442.307-465.433 0.979-10.756-6.992-20.241-17.746-21.218-0.687 0.002-1.272-0.048-1.81-0.048z" />
<glyph unicode="&#xe914;" glyph-name="headset" d="M924.142 486.374c-8.274 14.346-22.13 24.619-38.263 28.364v88.329c0 196.646-167.901 356.933-374.256 356.933s-374.256-160.287-374.256-356.933v-88.329c-16.198-3.971-30.001-14.532-38.073-29.126-6.275-12.095-9.356-25.594-8.947-39.215v-194.362c-0.376-13.556 2.703-26.987 8.947-39.025 12.752-21.892 37.014-34.432 62.249-32.172h29.506c1.209-20.131 17.906-35.824 38.073-35.788h33.504c21.028 0 38.073 17.045 38.073 38.073v335.993c0 21.028-17.045 38.073-38.073 38.073h-34.456c-21.028 0-38.073-17.045-38.073-38.073v-1.523h-15.42v85.474c0 175.897 150.768 318.86 336.183 318.86s336.183-142.964 336.183-318.86v-85.474h-15.42v1.523c0 21.028-17.045 38.073-38.073 38.073h-31.981c-21.028 0-38.073-17.045-38.073-38.073v-337.325c0.457-19.058 14.936-34.839 33.885-36.931-3.631-24.212-14.363-46.803-30.839-64.914-29.887-33.123-78.62-52.16-144.296-57.109v8.376c-1.028 21.935-19.558 38.934-41.499 38.073h-81.666c-21.942 0.861-40.471-16.138-41.499-38.073v-57.109c1.028-21.935 19.558-38.934 41.499-38.073h82.428c21.942-0.861 40.471 16.138 41.499 38.073v10.66c77.098 5.14 135.349 28.364 172.47 69.293 23.132 25.185 37.721 57.031 41.69 90.994 19.213 1.116 34.57 16.393 35.788 35.598h29.506c25.233-2.261 49.497 10.28 62.249 32.172 6.244 12.038 9.323 25.468 8.947 39.025v194.552c0.364 13.928-2.917 27.708-9.518 39.976zM229.122 217.389v262.893c0.195 2.218 0.195 4.445 0 6.663v31.41l31.981 0.952v-336.374h-31.981v34.456zM191.050 481.234v-262.322h-29.506c-22.082 0-27.222 9.328-28.935 12.564-3.079 6.468-4.519 13.594-4.188 20.75v194.171c-0.421 7.203 0.952 14.399 3.998 20.94 1.713 3.046 6.853 12.564 28.935 12.564l29.697 1.333zM545.698 3.42v-26.080c-0.847-1.549-2.427-2.553-4.188-2.665h-82.428c-1.014-0.074-2.032-0.074-3.046 0v55.586c1.064 0.876 2.437 1.287 3.807 1.142h82.428c2.094 0 3.427 0 3.427 0v-27.984zM794.314 480.282v-297.349h-32.172v336.183h32.743l-0.571-38.834zM890.638 231.095c-1.713-3.046-6.853-12.564-28.935-12.564h-29.316v260.989h29.316c22.082 0 27.222-9.328 28.935-12.564 3.079-6.468 4.519-13.594 4.188-20.75v-194.362c0.328-7.155-1.109-14.282-4.188-20.75z" />
<glyph unicode="&#xe915;" glyph-name="instagram" d="M874 960h-724c-82.703 0-150-67.297-150-150v-724c0-82.703 67.297-150 150-150h724c82.703 0 150 67.297 150 150v724c0 82.703-67.297 150-150 150zM514 180c-148.883 0-270 121.117-270 270s121.117 270 270 270 270-121.117 270-270-121.117-270-270-270zM814 660c-49.625 0-90 40.375-90 90s40.375 90 90 90 90-40.375 90-90-40.375-90-90-90zM814 780c-16.555 0-30-13.445-30-30s13.445-30 30-30 30 13.445 30 30-13.445 30-30 30zM514 660c-115.781 0-210-94.219-210-210s94.219-210 210-210 210 94.219 210 210-94.219 210-210 210z" />
<glyph unicode="&#xe916;" glyph-name="left-arrow" d="M703.305-2.878c6.35-6.35 14.288-9.526 23.020-9.526s16.67 3.175 23.020 9.526c12.701 12.701 12.701 33.34 0 46.040l-404.837 404.837 404.837 404.837c12.701 12.701 12.701 33.34 0 46.040s-33.34 12.701-46.040 0l-428.651-427.857c-12.701-12.701-12.701-33.34 0-46.040l428.651-427.857z" />
<glyph unicode="&#xe917;" glyph-name="man-listening-to-music" d="M798.564 869.743l-14.639 3.906c-2.48 0.663-5.010 0.994-7.511 0.994-13.876 0-25.142-10.222-26.779-24.299l-18.063-155.17c-0.813-6.948-7.681-15.031-14.419-16.949l-102.958-29.299h-128.522l-225.265 161.145c-5.091 3.645-11.085 5.573-17.33 5.573-9.8 0-18.967-4.81-24.53-12.862l-12.852-18.586c-9.388-13.595-6.105-32.462 7.33-42.081l226.952-162.35c0.703-0.502 1.466-0.894 2.199-1.335v-267.165c0-0.171 0.050-0.321 0.050-0.492-0.271-0.723-0.643-1.396-0.884-2.139l-98.229-307.63c-4.087-12.812-2.842-26.297 3.514-37.964s17.009-20.021 29.992-23.526l6.567-1.777c4.307-1.165 8.756-1.757 13.234-1.757v0c22.602 0 43.135 14.87 49.933 36.177l98.229 307.63c0.141 0.442 0.161 0.904 0.291 1.345h23.837c0.131-0.442 0.151-0.904 0.291-1.345l98.229-307.63c6.798-21.297 27.331-36.177 49.943-36.177 4.478 0 8.926 0.592 13.224 1.757l6.567 1.777c12.983 3.514 23.636 11.868 29.992 23.526s7.601 25.142 3.514 37.964l-98.229 307.63c-0.231 0.733-0.612 1.396-0.874 2.119 0 0.171 0.050 0.331 0.050 0.502v267.928l109.505 45.384c13.535 5.613 25.202 21.437 26.558 36.036l16.045 173.344c1.476 15.945-9.489 31.669-24.961 35.795zM433.15 737.858c8.153 0 15.694 2.35 22.291 6.155 15.784-40.635 55.214-69.573 101.362-69.573s85.578 28.928 101.372 69.563c6.597-3.805 14.137-6.155 22.291-6.155 24.751 0 44.892 20.142 44.892 44.902v21.758c0 22.542-16.758 41.077-38.436 44.24-10.382 62.996-65.054 111.252-130.942 111.252-65.948 0-120.68-48.346-130.982-111.423-20.865-3.856-36.739-22.1-36.739-44.069v-21.758c0.010-24.751 20.142-44.892 44.892-44.892zM555.979 939.918c55.365 0 101.442-40.143 110.901-92.837-6.045-1.938-11.517-5.051-16.146-9.177-18.887 32.321-53.869 54.15-93.932 54.15s-75.045-21.819-93.922-54.15c-5.040 4.488-11.065 7.812-17.742 9.679 9.659 52.443 55.636 92.335 110.84 92.335z" />
<glyph unicode="&#xe918;" glyph-name="play-button" d="M879.393 468.078l-707.064 487.631c-7.485 5.145-17.189 5.681-25.186 1.512-8.022-4.218-13.044-12.508-13.044-21.578v-975.261c0-9.070 5.023-17.384 13.044-21.602 3.56-1.853 7.461-2.779 11.337-2.779 4.852 0 9.679 1.463 13.849 4.316l707.064 487.631c6.607 4.559 10.533 12.044 10.533 20.066s-3.95 15.507-10.533 20.066z" />
<glyph unicode="&#xe919;" glyph-name="right-arrow" d="M320.695-2.878c-6.35-6.35-14.288-9.526-23.020-9.526s-16.67 3.175-23.020 9.526c-12.701 12.701-12.701 33.34 0 46.040l404.837 404.837-404.837 404.837c-12.701 12.701-12.701 33.34 0 46.040s33.34 12.701 46.040 0l427.857-427.857c12.701-12.701 12.701-33.34 0-46.040l-427.857-427.857z" />
<glyph unicode="&#xe91a;" glyph-name="search" d="M999.602-31.269l-287.271 298.755c73.273 73.485 118.667 174.791 118.667 286.517 0 223.878-182.118 405.996-405.996 405.996s-405.996-182.118-405.996-405.996 182.118-405.996 405.996-405.996c98.27 0 188.46 35.128 258.755 93.418l287.967-299.49c3.789-3.963 8.855-5.935 13.939-5.935 4.833 0 9.647 1.798 13.398 5.394 7.695 7.405 7.927 19.642 0.541 27.337zM425.001 186.674c-202.553 0-367.33 164.776-367.33 367.33s164.776 367.33 367.33 367.33 367.33-164.776 367.33-367.33-164.796-367.33-367.33-367.33z" />
<glyph unicode="&#xe91b;" glyph-name="shipped" d="M952.316 497.274l-26.518 106.070c7.25 1.54 12.69 7.972 12.69 15.678v17.102c0 37.132-30.21 67.34-67.34 67.34h-120.784v35.276c0 18.272-14.864 33.136-33.136 33.136h-615.684c-18.272 0-33.136-14.864-33.136-33.136v-290.74c0-8.854 7.178-16.034 16.034-16.034 8.854 0 16.034 7.178 16.034 16.034v290.74c0 0.59 0.478 1.068 1.068 1.068h615.682c0.59 0 1.068-0.478 1.068-1.068v-290.744c0-8.854 7.178-16.034 16.034-16.034 8.854 0 16.034 7.178 16.034 16.034v18.176h189.138c0.016 0 0.028-0.004 0.042-0.004 0.016 0 0.030 0.002 0.044 0.002 23.274-0.016 43.036-15.292 49.824-36.342h-49.856c-8.854 0-16.034-7.178-16.034-16.034v-34.204c0-27.702 22.536-50.238 50.238-50.238h18.172v-70.546h-41.924c-13.772 39.766-51.574 68.41-95.964 68.41s-82.194-28.644-95.964-68.41h-7.72v120.786c0 8.854-7.178 16.034-16.034 16.034-8.854 0-16.034-7.178-16.034-16.034v-120.782h-332.656c-13.772 39.766-51.574 68.41-95.964 68.41s-82.194-28.644-95.964-68.41h-92.162c-0.59 0-1.068 0.478-1.068 1.068v35.274h69.478c8.854 0 16.034 7.178 16.034 16.034s-7.178 16.034-16.034 16.034h-153.92c-8.854 0-16.034-7.178-16.034-16.034s7.178-16.034 16.034-16.034h52.376v-35.274c0-18.272 14.864-33.136 33.136-33.136h86.608c-0.004-0.356-0.028-0.71-0.028-1.068 0-55.992 45.554-101.544 101.544-101.544s101.544 45.552 101.544 101.544c0 0.36-0.024 0.712-0.028 1.068h361.34c-0.004-0.356-0.028-0.71-0.028-1.068 0-55.992 45.554-101.544 101.544-101.544s101.544 45.552 101.544 101.544c0 0.36-0.024 0.712-0.028 1.068h52.406c8.854 0 16.034 7.178 16.034 16.034v171.022c0.002 42.224-31.152 77.306-71.682 83.476zM750.364 671.398h120.784c19.45 0 35.274-15.824 35.274-35.274v-1.068h-156.058v36.342zM750.364 498.238v104.752h142.47l26.188-104.752h-168.658zM289.67 156.192c-38.31 0-69.478 31.166-69.478 69.478s31.168 69.478 69.478 69.478c38.31 0 69.478-31.166 69.478-69.478s-31.168-69.478-69.478-69.478zM854.046 156.192c-38.31 0-69.478 31.166-69.478 69.478s31.168 69.478 69.478 69.478c38.31 0 69.478-31.166 69.478-69.478s-31.168-69.478-69.478-69.478zM991.934 361.42h-18.172c-10.020 0-18.172 8.152-18.172 18.172v18.172h36.342v-36.344zM289.67 258.806c-18.272 0-33.136-14.864-33.136-33.136s14.864-33.136 33.136-33.136c18.272 0 33.136 14.864 33.136 33.136s-14.864 33.136-33.136 33.136zM854.046 258.806c-18.272 0-33.136-14.864-33.136-33.136s14.864-33.136 33.136-33.136c18.272 0 33.136 14.864 33.136 33.136s-14.864 33.136-33.136 33.136zM665.92 327.214h-239.432c-8.854 0-16.034-7.178-16.034-16.034s7.178-16.034 16.034-16.034h239.432c8.854 0 16.034 7.178 16.034 16.034s-7.178 16.034-16.034 16.034zM255.466 395.624h-205.228c-8.854 0-16.034-7.178-16.034-16.034s7.178-16.034 16.034-16.034h205.228c8.854 0 16.034 7.178 16.034 16.034s-7.18 16.034-16.034 16.034zM557.542 613.26c-6.26 6.26-16.414 6.26-22.674-0.002l-142.584-142.582-74.174 74.174c-6.262 6.262-16.414 6.262-22.674 0-6.262-6.262-6.262-16.412 0-22.674l85.512-85.512c3.13-3.132 7.234-4.696 11.336-4.696s8.208 1.564 11.336 4.696l153.92 153.92c6.262 6.264 6.262 16.414 0.002 22.676z" />
<glyph unicode="&#xe91c;" glyph-name="shopping-cart" d="M329.922 297.992h0.047c0.039 0 0.078 0.008 0.117 0.008h543.914c13.391 0 25.164 8.883 28.844 21.758l120 420c2.586 9.055 0.773 18.789-4.891 26.305-5.672 7.516-14.539 11.937-23.953 11.937h-733.265l-21.445 96.508c-3.055 13.727-15.227 23.492-29.289 23.492h-180c-16.57 0-30-13.43-30-30s13.43-30 30-30h155.937c3.797-17.102 102.625-461.836 108.312-487.422-31.883-13.859-54.25-45.648-54.25-82.578 0-49.625 40.375-90 90-90h544c16.57 0 30 13.43 30 30s-13.43 30-30 30h-544c-16.539 0-30 13.461-30 30 0 16.516 13.414 29.953 29.922 29.992zM954.226 718l-102.859-360h-497.304l-80 360zM300 88c0-49.625 40.375-90 90-90s90 40.375 90 90-40.375 90-90 90-90-40.375-90-90zM390 118c16.539 0 30-13.461 30-30s-13.461-30-30-30-30 13.461-30 30 13.461 30 30 30zM724 88c0-49.625 40.375-90 90-90s90 40.375 90 90-40.375 90-90 90-90-40.375-90-90zM814 118c16.539 0 30-13.461 30-30s-13.461-30-30-30-30 13.461-30 30 13.461 30 30 30z" />
<glyph unicode="&#xe91d;" glyph-name="soundcloud-logo" d="M0 345.338c0-34.623 15.758-65.582 40.596-86.448v172.84c-24.838-20.81-40.596-51.792-40.596-86.391zM83.536 454.463v-218.26c10.138-2.799 20.844-4.38 31.869-4.38h11.082v226.486c-3.698 0.307-7.396 0.512-11.15 0.512-11.059 0-21.697-1.536-31.801-4.358zM178.381 440.297c-2.935 1.877-5.86 3.607-8.977 5.2v-213.675h42.928v285.798c-17.089-22.3-29.002-48.629-33.951-77.323zM255.283 557.807v-325.985h42.94v347.125c-15.349-5.166-29.753-12.356-42.94-21.14zM341.151 587.833v-356.011h42.94v354.702c-8.795 1.308-17.852 1.991-27.079 1.991-5.37 0-10.661-0.262-15.861-0.683zM450.697 562.734c-14.017 8.306-29.104 14.859-45.124 19.228v-350.14h64.398v356.739c-7.031-8.112-13.494-16.771-19.274-25.828zM491.463 610.088v-378.266h407.916v0.501c85.891 5.495 124.621 58.778 124.621 123.802 0 68.665-51.905 124.302-121.776 124.302-17.931 0-32.7-3.698-48.299-10.388-11.173 109.022-103.663 194.139-217.543 194.139-55.706 0-106.337-20.4-144.919-54.090z" />
<glyph unicode="&#xe91e;" glyph-name="speaker" d="M559.061 892.824c-19.21 10.865-41.943 10.51-60.819-0.866-0.905-0.531-1.771-1.161-2.559-1.83l-266.697-225.62h-209.303c-10.884 0-19.682-8.798-19.682-19.682v-373.967c0-5.236 2.067-10.235 5.767-13.916s8.68-5.767 13.916-5.767l208.831 0.098 266.56-244.85c0.984-0.905 2.047-1.693 3.169-2.362 9.684-5.846 20.411-8.778 31.138-8.778 10.176 0.020 20.332 2.637 29.681 7.912 19.663 11.101 31.413 31.374 31.413 54.225v781.158c0 22.851-11.75 43.124-31.413 54.245zM551.109 57.421c0-8.483-4.271-15.943-11.396-19.978-3.051-1.712-10.786-5.019-19.682-0.512l-264.158 242.665v89.673c0 10.884-8.798 19.682-19.682 19.682s-19.682-8.798-19.682-19.682v-78.651l-177.142-0.079v334.602h177.142v-78.73c0-10.884 8.798-19.682 19.682-19.682s19.682 8.798 19.682 19.682v89.28l263.843 223.199c9.074 4.763 16.927 1.378 19.997-0.354 7.125-4.035 11.396-11.495 11.396-19.958v-781.158zM763.621 820.924c-10.294 3.484-21.474-2.027-24.977-12.321-3.484-10.274 2.027-21.474 12.321-24.977 139.765-47.454 233.67-178.382 233.67-325.804 0-147.284-93.728-278.231-233.218-325.824-10.274-3.503-15.785-14.683-12.262-24.997 2.795-8.168 10.432-13.325 18.62-13.325 2.106 0 4.251 0.335 6.357 1.063 155.413 53.005 259.848 198.911 259.848 363.063 0.020 164.329-104.612 310.235-260.36 363.122zM846.858 457.841c0 117.544-78.907 222.451-191.884 255.124-10.491 2.972-21.336-2.992-24.367-13.463-3.011-10.432 2.992-21.355 13.463-24.367 96.228-27.811 163.443-117.17 163.443-217.294s-67.216-189.483-163.443-217.294c-10.451-3.011-16.474-13.935-13.463-24.367 2.5-8.621 10.353-14.23 18.915-14.23 1.811 0 3.641 0.256 5.452 0.768 112.997 32.673 191.884 137.58 191.884 255.124z" />
<glyph unicode="&#xe91f;" glyph-name="twitter-logo-on-black-background" d="M921.6 960h-819.2c-56.32 0-102.4-46.080-102.4-102.4v-819.2c0-56.32 46.080-102.4 102.4-102.4h819.2c56.32 0 102.4 46.080 102.4 102.4v819.2c0 56.32-46.080 102.4-102.4 102.4zM803.84 586.24c-5.12-235.52-153.6-399.36-378.88-409.6-92.16-5.12-158.72 25.6-220.16 61.44 66.56-10.242 153.6 15.358 199.68 56.32-66.56 5.12-107.52 40.96-128 97.28 20.48-5.12 40.96 0 56.32 0-61.44 20.48-102.4 56.32-107.52 138.24 15.36-10.24 35.84-15.36 56.32-15.36-46.080 25.6-76.8 122.88-40.96 184.32 66.56-71.68 148.48-133.12 281.6-143.36-35.84 143.36 158.722 220.16 235.522 122.88 35.84 5.12 61.44 20.48 87.040 30.72-10.24-35.84-30.72-56.32-56.32-76.8 25.6 5.12 51.2 10.24 71.68 20.48-5.122-25.6-30.722-46.080-56.322-66.56z" />
<glyph unicode="&#xe920;" glyph-name="user" d="M689.435 359.231l-2.618 1.183c-6.251 2.844-12.547 5.527-18.966 8.038-7.001 2.805-14.105 5.401-21.312 7.831-5.692 1.868-11.425 3.613-17.221 5.317-8.827 2.553-17.741 4.861-26.92 6.897-3.116 0.643-6.293 1.267-9.451 1.829l-2.159 0.417c-5.42 1.060-10.863 1.994-16.367 2.805l-1.577 0.249c-0.061 0-0.103 0.042-0.165 0.042l-1.577 0.207c-4.57 0.685-9.118 1.328-13.856 1.868l-16.118 1.328c-19.816 1.309-40.236 1.267-59.823-0.165l-5.711-0.478-2.66-0.207-6.668-0.601c-6.128-0.643-12.214-1.496-18.3-2.473l-1.787-0.249c-4.153-0.685-8.31-1.454-12.401-2.224-4.548-0.811-9.037-1.703-13.523-2.679-8.681-1.952-17.305-4.176-25.653-6.606-6.648-1.91-13.21-4.008-19.38-6.128l-4.279-1.538c-13.087-4.632-26.089-9.948-38.678-15.785l-3.365-1.6-0.061-0.084c-147.211-70.459-242.141-220.58-242.141-383.473 0-3.74 0.249-7.414 0.478-11.112l1.102-25.84h847.409l1.141 25.55c0.249 3.782 0.478 7.54 0.478 11.403 0 165.492-97.234 316.941-247.871 386.279zM128.255-22.455c1.787 146.255 88.262 280.422 220.059 342.219l4.237 1.661 0.498 0.478c10.323 4.716 20.979 9.014 31.781 12.815l3.426 1.225c5.879 2.036 11.736 3.904 17.822 5.63 7.582 2.224 15.31 4.218 23.058 5.96 4.008 0.85 8.019 1.661 12.153 2.431 3.281 0.601 6.542 1.225 9.845 1.745l1.619 0.291c5.941 0.934 11.904 1.787 17.844 2.431l13.584 1.183c17.78 1.309 34.793 1.496 55.398 0l13.21-1.102c3.261-0.375 6.522-0.811 10.491-1.37l4.758-0.685c4.964-0.727 9.929-1.577 14.913-2.515l2.327-0.436c2.805-0.52 5.588-1.060 8.226-1.619 8.184-1.787 16.222-3.904 24.199-6.212 5.275-1.538 10.511-3.116 15.621-4.819 6.48-2.159 12.88-4.509 19.215-7.020 6.086-2.389 12.088-4.945 18.029-7.666l1.037-0.478c134.791-61.839 222.322-196.442 224.109-344.11l-767.457-0.036zM409.323 450.628c3.116-1.309 6.335-2.45 9.554-3.594l6.752-2.45c2.595-0.995 5.213-1.975 7.873-2.805 24.761-7.789 50.663-11.797 77.001-12.007l2.098-0.042c9.037 0 18.093 0.478 26.775 1.37 2.99 0.291 5.899 0.769 8.827 1.267l6.503 0.976c3.655 0.478 7.311 1.018 11.135 1.765 2.618 0.54 5.152 1.225 7.686 1.91l7.104 1.807c3.51 0.85 7.020 1.703 10.491 2.783 2.159 0.685 4.279 1.474 6.377 2.266l5.711 2.056c4.072 1.412 8.184 2.867 12.298 4.59 1.6 0.685 3.158 1.432 4.693 2.182l1.849 0.915c5.63 2.515 11.238 5.091 16.804 8.080l3.613 2.159c6.231 3.533 12.444 7.188 18.736 11.487 3.261 2.201 6.377 4.674 9.451 7.124l10.637 8.268c61.154 50.621 96.3 124.904 96.3 201.947l0.126 2.201c0 146.193-118.94 265.114-265.134 265.114-139.545 0-255.641-109.115-264.303-248.414l-0.229-3.449c-0.333-4.383-0.601-8.765-0.601-13.252-0.042-106.781 63.501-202.645 161.875-244.251zM289.468 705.251l0.249 3.74c7.311 117.467 105.188 209.465 222.842 209.465 123.304 0 223.589-100.288 223.695-221.679l-0.126-2.182c-0.084-66.513-29.745-129.141-81.571-172.16l-9.868-7.521c-2.201-1.787-4.425-3.571-7.188-5.485-4.984-3.387-10.262-6.438-15.621-9.473l-2.97-1.807c-4.486-2.411-9.202-4.548-14.105-6.729l-5.504-2.66c-3.158-1.309-6.48-2.45-9.764-3.594l-6.855-2.473c-1.328-0.498-2.679-1.037-3.988-1.432-2.553-0.789-5.171-1.393-7.77-2.036l-8.287-2.12c-1.787-0.478-3.552-0.976-5.129-1.309-2.763-0.54-5.588-0.915-8.39-1.309l-7.893-1.183c-1.91-0.333-3.824-0.666-5.963-0.873-6.917-0.727-13.875-1.122-20.937-1.183l-1.994 0.019c-22.744 0.019-45.075 3.407-66.429 10.094-1.849 0.582-3.655 1.309-5.462 1.994l-7.809 2.844c-2.431 0.853-4.838 1.684-7.166 2.66-82.922 35.071-136.517 115.961-136.517 206.006 0 3.51 0.271 6.959 0.52 10.385z" />
<glyph unicode="&#xe921;" glyph-name="youtube-logo" d="M921.6 837.12c-30.72 10.24-220.16 20.48-409.6 20.48s-378.88-10.24-409.6-20.48c-81.92-25.6-102.4-204.8-102.4-389.12s20.48-363.52 102.4-389.12c30.72-10.24 220.16-20.48 409.6-20.48s378.88 10.24 409.6 20.48c81.92 25.6 102.4 204.8 102.4 389.12s-20.48 363.52-102.4 389.12zM409.6 217.6v460.8l307.2-230.4-307.2-230.4z" />
</font>
</defs>
</svg>
